<svg xmlns="http://www.w3.org/2000/svg" id="Layer_1" x="0" y="0" version="1.1" viewBox="0 0 29 29" xml:space="preserve"><path d="M22.496 22.807a.997.997 0 0 1-.707-.293l-18-18A.999.999 0 1 1 5.203 3.1l18 18a.999.999 0 0 1-.707 1.707z"/><path d="M12.496.079h2v25.456h-2z" transform="rotate(-45.001 13.496 12.807)"/><path d="M20.156 20.467a.999.999 0 01-.707-1.707l4.386-4.386a5.505 5.505 0 000-7.778 5.505 5.505 0 00-7.778 0l-.354.354a.999.999 0 01-1.414 0l-.354-.354a5.502 5.502 0 00-7.271-.449 1 1 0 01-1.231-1.576 7.504 7.504 0 019.563.28c2.942-2.587 7.443-2.479 10.253.332 2.924 2.924 2.924 7.683 0 10.606l-4.386 4.386a.996.996 0 01-.707.292zM14.996 23.214l-8.839-8.839a5.488 5.488 0 01-1.594-3.883 2.214 2.214 0 01.027-.67c.005-.029.017-.057.022-.086.005-.046.006-.093.013-.139l.017.017c.078-.368.197-.727.345-1.077l-1.57-1.57-.155.334a7.52 7.52 0 001.48 8.488l10.253 10.253 3.744-3.744-1.414-1.414-2.329 2.33z"/></svg>